<?xml version="1.0" encoding="utf-8"?><!DOCTYPE svg PUBLIC "-//W3C//DTD SVG 1.1//EN" "http://www.w3.org/Graphics/SVG/1.1/DTD/svg11.dtd"><svg version="1.1" id="Contours" xmlns="http://www.w3.org/2000/svg" xmlns:xlink="http://www.w3.org/1999/xlink" x="0px" y="0px" width="1814.614624px" height="1814.614624px" viewBox="0.000001 0.000001 1814.614624 1957.924805" enable-background="new 0 0 1814.614624 1814.614624" xml:space="preserve" stroke="black" fill="none" stroke-linecap='round' stroke-linejoin='round'><path class="selected"  fill="#000000" opacity="1.000000" stroke="none" 
 	d="
M1285.927581 1909.105418 C1272.751677 1913.105418 1260.169524 1917.440745 1247.375945 1921.020579 C1231.353118 1925.503977 1215.211638 1929.600291 1199.017180 1933.422312 C1186.658049 1936.339304 1174.157439 1938.677195 1161.681853 1941.075266 C1148.841399 1943.543284 1135.989714 1945.992136 1123.076628 1948.029124 C1114.220549 1949.426341 1105.245574 1950.058421 1096.333831 1951.117747 C1085.547087 1952.399851 1074.785735 1953.909251 1063.984832 1955.051341 C1057.988372 1955.685618 1051.937590 1955.941966 1045.904876 1956.077219 C1013.516936 1956.803782 981.127532 1957.882517 948.737395 1957.924632 C931.653655 1957.946848 914.550261 1956.330515 897.488005 1955.030467 C885.011565 1954.079905 872.545928 1952.741282 860.151519 1951.026438 C845.738311 1949.032176 831.399565 1946.490061 817.044341 1944.090525 C803.499785 1941.826365 789.889922 1939.844309 776.465850 1936.997630 C761.385894 1933.799632 746.358367 1930.207591 731.529570 1926.005442 C708.156646 1919.381907 684.808928 1912.588206 661.753814 1904.951121 C643.637481 1898.949900 625.937102 1891.674509 608.127166 1884.771067 C578.174895 1873.161082 549.366057 1859.014842 521.055754 1843.955637 C501.041961 1833.309519 481.546294 1821.631907 462.238250 1809.734812 C445.952239 1799.699534 430.087249 1788.947703 414.375670 1778.024241 C401.349364 1768.967967 388.558287 1759.526682 376.135863 1749.660471 C361.609832 1738.123484 347.518401 1726.032664 333.393096 1714.000437 C326.177611 1707.854075 319.193908 1701.423655 312.295256 1694.920237 C302.785155 1685.954905 293.178374 1677.065501 284.109008 1667.665110 C268.915740 1651.917429 253.678191 1636.173289 239.277373 1619.711863 C226.404021 1604.995921 214.167662 1589.661692 202.493071 1573.973093 C186.367400 1552.302805 170.526885 1530.381907 155.524794 1507.926707 C144.211303 1490.992625 134.096175 1473.227244 124.021224 1455.505930 C115.310576 1440.184275 106.896651 1424.648142 99.284819 1408.759715 C90.905913 1391.270335 83.779067 1373.185618 75.772231 1355.511912 C62.952575 1327.215159 52.871749 1297.909739 43.764037 1268.285105 C37.564605 1248.120310 32.215270 1227.678782 27.018096 1207.225901 C22.901717 1191.026316 19.350837 1174.670481 16.022933 1158.287791 C14.159560 1149.114817 13.349784 1139.731883 11.903510 1130.468943 C10.343291 1120.476389 8.548186 1110.520701 6.954482 1100.533152 C6.448989 1097.365427 6.194167 1094.152537 5.939299 1090.950999 C4.911040 1078.034739 3.804038 1065.122874 2.962622 1052.193919 C2.135276 1039.481028 1.412360 1026.755686 0.974288 1014.024485 C0.443991 998.612742 0.020324 983.189402 0.000464 967.770457 C-0.016740 954.409495 0.446753 941.041941 0.972602 927.688059 C1.421469 916.289439 1.855269 904.864268 3.026236 893.526255 C4.631713 877.981211 6.925025 862.507151 8.928466 847.003306 C10.257041 836.722056 11.310988 826.395091 13.002913 816.173777 C14.900740 804.708567 17.315970 793.326609 19.622077 781.931956 C21.984130 770.260874 24.200087 758.548716 27.007483 746.982554 C29.860862 735.227000 33.121337 723.556040 36.624923 711.975596 C42.892348 691.259776 49.026015 670.484812 56.065688 650.027049 C62.024703 632.709666 68.933944 615.702769 75.887954 598.749339 C82.256697 583.222727 88.552687 567.600169 96.111861 552.642039 C111.213286 522.759226 126.877715 493.174754 144.637297 464.708506 C162.326278 436.355418 180.861785 408.631419 201.357787 382.245432 C210.907653 369.951212 220.656890 357.795878 230.724028 345.923808 C241.049895 333.746623 251.586943 321.720652 262.550200 310.118601 C277.591033 294.201365 292.616179 278.207804 308.581450 263.242747 C324.771636 248.066813 341.937712 233.911295 358.978453 219.670298 C371.629973 209.097346 384.577513 198.854365 397.742492 188.927683 C408.310027 180.959544 419.230254 173.425272 430.298796 166.162943 C449.916533 153.291224 469.461272 140.260447 489.615020 128.268427 C505.542205 118.791346 522.164519 110.423686 538.792388 102.198725 C557.161650 93.112421 575.705779 84.326289 594.512847 76.193598 C612.737517 68.312769 631.247710 61.030001 649.902617 54.225039 C666.287749 48.248042 682.910430 42.819865 699.676177 38.014697 C719.846953 32.233645 740.242400 27.216174 760.612883 22.159586 C773.803862 18.885180 787.075286 15.886572 800.403838 13.231955 C809.422698 11.435671 818.607390 10.478056 827.710906 9.098772 C838.524382 7.460410 849.305571 5.581717 860.147979 4.169993 C867.828154 3.169997 875.588103 2.788767 883.309783 2.100565 C890.535369 1.456576 897.771025 0.889628 904.974456 0.050089 C908.044097 -0.307664 908.292388 1.295138 907.904998 3.447340 C905.617400 16.155230 903.352813 28.868479 900.900298 41.545077 C898.696379 52.936488 896.027251 64.241496 893.994231 75.661326 C892.020354 86.749155 890.716643 97.954630 888.890532 109.070948 C887.308074 118.703837 885.398833 128.282923 883.647368 137.888224 C882.064666 146.567973 880.453460 155.242930 878.941069 163.935008 C877.505095 172.188273 876.211577 180.466227 874.798674 188.723612 C873.548857 196.028376 872.235259 203.322321 870.924041 210.616404 C869.168059 220.385325 867.405425 230.153086 865.611235 239.915049 C864.075225 248.272227 862.415557 256.607279 860.945403 264.975840 C858.786773 277.264292 856.785003 289.580271 854.645964 301.872263 C853.133574 310.563273 851.446990 319.224009 849.941314 327.916148 C847.811187 340.213084 845.821990 352.534464 843.684600 364.830088 C842.174346 373.518107 840.523406 382.181742 838.926360 390.854624 C836.987578 401.383219 835.023650 411.907237 833.100493 422.438670 C831.684783 430.191416 830.597747 438.021037 828.743499 445.665812 C828.236113 447.757853 825.816436 450.198771 823.720916 450.963847 C807.495940 456.887248 790.739104 461.519480 774.915557 468.335703 C754.678374 477.053294 734.860930 486.880747 715.427398 497.284922 C700.333220 505.365916 685.801909 514.613230 671.578887 524.173045 C658.288420 533.106089 645.132476 542.432688 632.996550 552.844187 C615.202117 568.110178 597.829253 583.960703 581.312102 600.590525 C569.859587 612.121165 559.717559 625.049754 549.774382 637.957957 C538.098113 653.116099 526.703948 668.558176 516.249480 684.570506 C507.359465 698.186839 499.632293 712.604624 492.000640 726.991343 C476.929961 755.402049 464.760649 785.082346 455.739348 815.944773 C450.851531 832.666087 446.875457 849.672617 443.022185 866.671519 C440.206023 879.095103 438.024016 891.678294 436.018279 904.263560 C434.853118 911.574351 434.795623 919.054270 433.891448 926.415354 C430.615996 953.082102 431.920256 979.864451 432.138152 1006.586619 C432.239775 1019.043772 434.558806 1031.486643 435.939971 1043.928538 C436.875274 1052.354563 437.704985 1060.801585 438.987456 1069.177195 C440.393340 1078.359202 441.615691 1087.647776 444.062835 1096.576121 C449.997283 1118.228098 456.065520 1139.873728 463.114714 1161.179392 C467.794707 1175.324656 473.974761 1189.005442 480.011138 1202.660838 C485.619475 1215.348093 491.138030 1228.186717 498.108794 1240.134592 C509.126433 1259.018626 520.854399 1277.534739 533.182402 1295.591746 C541.903960 1308.366404 551.771086 1320.414134 561.756621 1332.255198 C571.563018 1343.884104 581.682891 1355.332224 592.519622 1365.990916 C613.735991 1386.858347 636.246306 1406.210276 660.574919 1423.530467 C679.867400 1437.265208 699.798430 1449.807688 720.564788 1461.089793 C742.960662 1473.256785 766.248809 1483.333689 790.132598 1492.317942 C812.221038 1500.626658 834.801787 1507.063548 857.555754 1512.932566 C869.138762 1515.920359 881.161284 1517.273753 893.030974 1519.062205 C907.507964 1521.243479 921.978728 1524.011546 936.550628 1524.885691 C956.692595 1526.094187 976.925628 1525.918772 997.121306 1526.039500 C1006.313933 1526.094431 1015.568084 1525.969065 1024.692351 1524.982859 C1038.913420 1523.445628 1053.021209 1520.890818 1067.223845 1519.148509 C1100.402556 1515.077830 1132.358245 1506.021189 1163.712371 1494.932932 C1180.523650 1488.987742 1196.790618 1481.459544 1213.158416 1474.314402 C1240.604583 1462.333079 1266.269744 1447.103342 1290.770964 1430.001170 C1304.602019 1420.346751 1318.004241 1410.011546 1331.032927 1399.294016 C1342.261931 1390.057078 1352.788665 1379.952342 1363.447966 1370.039866 C1383.065642 1351.796580 1400.146331 1331.340647 1416.583464 1310.204661 C1432.752532 1289.413401 1446.718230 1267.283762 1459.824553 1244.550608 C1461.878875 1240.987132 1463.968718 1241.425486 1466.370818 1243.117503 C1484.836760 1256.124827 1503.208220 1269.266306 1521.648650 1282.310008 C1533.882048 1290.963450 1546.209685 1299.483958 1558.443206 1308.137278 C1576.883391 1321.181223 1595.239104 1334.345042 1613.701995 1347.356883 C1639.361296 1365.440623 1665.113494 1383.392527 1690.774871 1401.473338 C1711.429778 1416.026438 1732.002044 1430.696848 1752.623870 1445.296946 C1771.951018 1458.980418 1791.346404 1472.568797 1810.578460 1486.384470 C1813.565520 1488.530222 1816.547820 1490.767039 1813.002166 1495.774607 C1801.658294 1511.795359 1791.096770 1528.367625 1779.925505 1544.513987 C1772.532683 1555.199046 1764.726043 1565.604929 1756.889739 1575.973216 C1751.096160 1583.638743 1745.062712 1591.130320 1738.945281 1598.541819 C1730.206511 1609.129221 1721.333709 1619.607127 1712.434172 1630.060130 C1709.146453 1633.921580 1705.717131 1637.674021 1702.185149 1641.313914 C1688.557341 1655.358592 1675.181853 1669.669505 1661.102141 1683.248240 C1646.858001 1696.985789 1632.303801 1710.466502 1617.136687 1723.165476 C1598.492766 1738.775584 1579.600188 1754.194651 1559.850798 1768.351023 C1537.041838 1784.700877 1513.491301 1800.079905 1489.677581 1814.943186 C1471.804900 1826.098338 1452.991668 1835.743723 1434.626189 1846.112864 C1412.956023 1858.347849 1390.216643 1868.282176 1367.464324 1878.299021 C1340.952117 1889.970774 1313.888274 1900.017039 1285.927581 1909.105418 M287.427520 1570.105418 C299.032470 1583.043772 310.099395 1596.519968 322.370452 1608.792185 C340.074767 1626.498484 358.526610 1643.467478 376.908934 1660.481638 C386.915587 1669.743357 397.049742 1678.948435 407.811950 1687.295115 C427.004241 1702.179759 446.333953 1716.947337 466.303923 1730.754832 C493.865447 1749.811472 522.558867 1767.175852 552.243254 1782.735789 C571.902800 1793.040965 591.928313 1802.735789 612.238066 1811.687449 C631.810637 1820.314524 651.714507 1828.339182 671.915068 1835.354929 C697.600615 1844.275584 723.501128 1852.768259 749.741118 1859.842478 C771.795317 1865.788279 794.416777 1869.707835 816.883879 1874.019846 C834.725493 1877.444041 852.671233 1880.396555 870.650847 1883.006541 C883.357024 1884.851023 896.173003 1886.118479 908.983855 1887.015452 C924.013274 1888.067454 939.087249 1888.892405 954.147429 1888.992381 C973.671965 1889.122019 993.211760 1888.716013 1012.726409 1888.020213 C1029.159392 1887.434397 1045.582488 1886.318552 1061.978728 1885.036692 C1074.619353 1884.048411 1087.226653 1882.566233 1099.820891 1881.069651 C1112.482512 1879.565501 1125.174285 1878.149241 1137.734099 1876.000315 C1150.543303 1873.808543 1163.250212 1870.956004 1175.925383 1868.058665 C1191.573333 1864.481883 1207.294768 1861.089915 1222.707244 1856.654856 C1242.450530 1850.973826 1261.976653 1844.510935 1281.481658 1838.039622 C1293.470671 1834.061839 1305.370086 1829.747385 1317.082488 1825.020701 C1329.358855 1820.066599 1341.447112 1814.619700 1353.467131 1809.062815 C1371.237761 1800.847239 1389.281829 1793.093455 1406.465911 1783.772166 C1427.642302 1772.285349 1448.368377 1759.884104 1468.709319 1746.965281 C1488.613860 1734.323435 1508.210173 1721.102854 1527.163298 1707.083689 C1545.086638 1693.826243 1562.287322 1679.540110 1579.263640 1665.070384 C1592.739226 1653.584544 1605.686003 1641.433543 1618.326995 1629.027049 C1629.106414 1618.447581 1639.250212 1607.206248 1649.428313 1596.032786 C1659.733245 1584.720164 1670.050017 1573.391306 1679.792815 1561.599436 C1692.947966 1545.677439 1705.632048 1529.363230 1718.376311 1513.105906 C1725.518523 1503.995188 1725.588713 1503.617503 1715.741545 1496.520945 C1696.794280 1482.865916 1677.605803 1469.545603 1658.501433 1456.109202 C1643.922087 1445.855418 1629.297820 1435.665232 1614.729705 1425.395457 C1596.664031 1412.659739 1578.628142 1399.882273 1560.594207 1387.101634 C1547.705901 1377.967967 1534.864714 1368.768015 1521.961516 1359.655589 C1510.883025 1351.832102 1499.747771 1344.088572 1488.634002 1336.314768 C1486.097503 1334.540476 1483.976653 1334.855784 1482.083709 1337.420847 C1476.235930 1345.345896 1470.650115 1353.496043 1464.354827 1361.052317 C1450.671721 1377.476634 1436.849700 1393.799754 1422.603118 1409.733714 C1415.800505 1417.342112 1408.069304 1424.158030 1400.450164 1430.988718 C1391.409392 1439.094187 1382.366423 1447.259959 1372.738005 1454.633860 C1353.715667 1469.201975 1334.755828 1483.933909 1314.909636 1497.322825 C1291.494841 1513.119822 1267.065520 1527.503489 1241.190642 1538.930003 C1220.359343 1548.129099 1199.109221 1556.560862 1177.555266 1563.893626 C1153.870696 1571.951121 1129.789153 1578.957713 1105.007781 1583.142161 C1094.466277 1584.921946 1084.043792 1587.449046 1073.475066 1589.013499 C1061.754119 1590.748484 1049.951751 1592.064036 1038.141570 1593.033518 C1022.413787 1594.324656 1006.653167 1595.684397 990.889983 1595.926707 C977.680144 1596.129710 964.448455 1594.727488 951.222503 1594.120921 C942.198088 1593.706980 933.164397 1593.494212 924.140044 1593.079295 C920.271209 1592.901560 916.381011 1592.659983 912.559783 1592.066111 C898.178496 1589.830759 883.767119 1587.727122 869.470610 1585.025950 C854.552581 1582.207224 839.576690 1579.406321 824.947478 1575.418772 C806.013579 1570.258372 787.217742 1564.443675 768.702361 1557.942698 C753.905974 1552.747508 739.448760 1546.477854 725.152983 1539.996897 C711.806670 1533.946726 698.665252 1527.366648 685.810393 1520.331370 C671.768523 1512.646433 657.757170 1504.772410 644.464324 1495.885935 C628.151885 1484.981150 612.296111 1473.329783 596.806609 1461.276682 C583.292693 1450.760447 570.066253 1439.765086 557.595855 1428.042063 C537.268889 1408.933054 517.944060 1388.793650 500.930999 1366.586375 C490.865142 1353.447703 480.191497 1340.695628 471.108245 1326.902415 C459.042449 1308.580515 447.615630 1289.764597 437.111907 1270.507761 C426.928679 1251.838572 417.376403 1232.712595 409.178221 1213.105174 C401.101989 1193.789378 394.694915 1173.739451 388.274504 1153.780344 C383.857177 1140.048167 380.049498 1126.050608 377.090514 1111.936594 C373.719329 1095.856394 371.510985 1079.528147 368.959105 1063.282176 C367.453185 1053.695506 365.921447 1044.091380 365.016539 1034.437327 C363.967955 1023.249827 363.109618 1012.002146 363.041106 1000.775217 C362.938170 983.916819 363.434050 967.048655 363.982390 950.194590 C364.364135 938.462107 365.087127 926.733042 365.981749 915.027293 C366.715819 905.421702 367.516600 895.787119 369.031371 886.283884 C370.933715 874.349070 373.212065 862.443919 376.013884 850.689402 C380.629576 831.325083 385.357604 811.966441 390.836791 792.834116 C398.233672 767.005442 408.447203 742.189402 419.719146 717.815928 C430.852813 693.741465 443.198211 670.242564 457.747954 648.121836 C471.049102 627.899424 485.664214 608.495860 500.461028 589.318369 C510.455474 576.365122 521.074004 563.731272 532.656096 552.203135 C550.098845 534.841685 568.265654 518.156199 586.818999 501.979746 C599.794951 490.666148 613.395415 479.885386 627.678679 470.299571 C647.213713 457.188975 667.217925 444.629649 687.835418 433.318461 C711.471099 420.351420 735.930877 408.834147 761.533355 400.089396 C768.718840 397.635142 772.374419 393.470591 773.101409 385.611948 C774.061126 375.237467 776.136138 364.955607 777.959746 354.674357 C780.157439 342.284190 782.697844 329.954752 784.895537 317.564555 C786.719085 307.283305 788.105681 296.923899 789.972075 286.651133 C791.766143 276.776041 794.126860 267.002909 795.873809 257.120524 C797.777190 246.353312 799.077483 235.479655 800.973113 224.710917 C803.454070 210.616923 806.376128 196.600871 808.892546 182.512721 C811.061248 170.371958 812.814849 158.157313 814.956816 146.011439 C817.499297 131.594935 820.239592 117.213053 822.937407 102.824290 C824.123992 96.496027 825.416350 90.187632 826.663237 83.870722 C826.911406 82.613642 827.675200 80.452280 827.335845 80.263491 C826.027068 79.535365 824.260527 78.904971 822.854949 79.186930 C806.877471 82.391840 790.817534 85.298106 775.011931 89.220316 C753.167876 94.640971 731.346099 100.289454 709.844329 106.910609 C690.409819 112.895167 671.186980 119.736704 652.289458 127.252863 C628.832183 136.582575 605.587493 146.522562 582.666472 157.099268 C566.263945 164.668116 550.388152 173.434763 534.566497 182.189509 C520.420623 190.016932 506.349150 198.066096 492.809905 206.884943 C459.952544 228.286723 427.655974 250.512644 398.107726 276.440409 C381.102416 291.362101 363.822966 305.996043 347.313109 321.449839 C334.520720 333.424021 322.702330 346.441630 310.509368 359.051859 C305.825469 363.896067 301.074157 368.704691 296.752349 373.863627 C286.009093 386.687876 275.306243 399.555247 264.945739 412.688120 C255.690520 424.419932 246.629638 436.328318 238.002013 448.525919 C227.933348 462.760905 217.991362 477.123057 208.792113 491.925730 C198.051909 509.208018 187.862395 526.854075 178.021270 544.666758 C170.334655 558.579722 163.381011 572.908152 156.406325 587.200694 C150.392394 599.524546 144.123473 611.792857 139.180724 624.555674 C129.720671 648.982676 120.735793 673.611826 112.301101 698.411326 C106.522399 715.401804 101.370467 732.665781 97.093184 750.090952 C92.053618 770.621531 87.994643 791.407053 84.013182 812.178416 C80.918380 828.324168 78.302993 844.576731 76.013686 860.857615 C73.939437 875.609141 72.309417 890.438364 71.015105 905.279673 C69.923293 917.799143 69.065505 930.383982 69.040007 942.941843 C68.990187 967.468333 69.314467 992.004343 70.031508 1016.520457 C70.468306 1031.455271 71.736632 1046.376048 72.986510 1061.273386 C74.032836 1073.744578 75.313521 1086.210764 76.999877 1098.609690 C79.027419 1113.517283 81.330977 1128.398997 83.997130 1143.205027 C87.029403 1160.044383 89.691848 1177.030589 94.132293 1193.517405 C101.374297 1220.406321 109.658629 1247.026926 118.045043 1273.589549 C122.028029 1286.205027 127.037093 1298.515940 131.981993 1310.803660 C138.764388 1327.657298 145.598906 1344.505198 153.032958 1361.076609 C158.840255 1374.021800 165.340300 1386.676829 171.991271 1399.217600 C180.483275 1415.229563 188.849974 1431.357981 198.340850 1446.777659 C210.091002 1465.867991 222.676604 1484.463694 235.400451 1502.929026 C244.490721 1516.121287 254.223571 1528.885203 264.006621 1541.580515 C271.369872 1551.135691 279.267669 1560.278880 287.427520 1570.105418 z"/><path class="selected"  fill="#000000" opacity="1.000000" stroke="none" 
 	d="
M1328.677581 877.855418 C1340.182463 869.772044 1351.384856 861.861643 1362.715422 854.139536 C1367.984587 850.548472 1372.085295 846.280344 1370.814788 839.468943 C1369.931487 834.733286 1364.877776 828.053660 1357.204802 827.112681 C1348.789885 826.080759 1340.391814 824.661204 1331.943694 824.207468 C1318.602752 823.490855 1305.186370 822.643992 1291.874846 823.310130 C1275.855681 824.111643 1259.900969 826.332896 1243.940154 828.132334 C1224.074919 830.372019 1205.418425 836.897105 1188.006560 846.311900 C1176.727629 852.410655 1166.449919 860.390940 1155.856902 867.720896 C1141.843962 877.417246 1127.974334 887.320322 1114.016692 897.096812 C1108.085906 901.251170 1101.895354 905.059885 1096.170867 909.476878 C1089.354216 914.736521 1082.574675 914.177622 1076.101653 909.654856 C1064.669524 901.667246 1053.531951 893.256419 1042.307463 884.973643 C1028.131804 874.513255 1013.992034 864.004343 999.837615 853.515086 C986.957976 843.970469 974.091399 834.407969 961.197356 824.883067 C948.185759 815.271555 935.153533 805.687815 922.117522 796.109385 C916.373565 791.888804 910.333403 788.021800 904.923064 783.412730 C900.855498 779.947581 897.755095 781.164439 894.548980 784.016917 C878.315154 798.460642 864.656279 814.958567 855.041655 834.557017 C851.950469 840.858286 852.992156 846.903635 857.579009 852.248789 C867.817900 864.180064 878.206328 875.985606 888.298003 888.039805 C898.824309 900.613230 908.993010 913.485484 919.471160 926.100047 C927.231047 935.442027 935.347747 944.487681 943.097014 953.838267 C949.531585 961.602427 956.063689 969.338145 961.829924 977.591258 C969.726775 988.894236 967.847014 997.404978 956.418425 1005.085520 C936.484465 1018.482249 916.440398 1031.715159 896.516326 1045.126536 C884.633452 1053.125193 873.076628 1061.623362 861.008391 1069.325266 C854.917510 1073.212229 848.551787 1077.145091 840.759002 1077.143015 C835.558684 1077.141673 831.644194 1075.399363 828.868621 1070.750681 C825.666472 1065.387644 827.056304 1060.577586 829.802153 1055.735545 C835.461394 1045.755930 845.246611 1040.381175 854.194487 1034.143748 C866.834746 1025.332591 879.693816 1016.836253 892.394866 1008.111399 C902.401885 1001.237254 912.098723 993.880076 922.385039 987.461497 C925.780791 985.342478 924.720977 983.868845 923.353667 982.129954 C917.591521 974.801768 911.678740 967.589732 905.718657 960.420298 C897.048613 949.990855 888.310820 939.617442 879.563384 929.252696 C872.051299 920.351695 864.409758 911.559092 856.962188 902.604807 C847.807341 891.597666 838.723479 880.529490 829.752288 869.372385 C825.675017 864.301585 820.967864 859.404856 818.290129 853.621775 C814.600859 845.654368 817.391631 837.447031 820.960967 829.871043 C828.557830 813.746714 837.035613 798.018504 848.455046 784.313059 C860.395903 769.982005 873.445464 756.578379 888.820098 745.756052 C896.503691 740.347422 904.955046 741.891917 914.455840 749.022593 C932.962249 762.912425 951.804900 776.353342 970.397551 790.129221 C986.621672 802.150279 1002.653533 814.430491 1018.850554 826.488718 C1027.097503 832.628428 1035.572356 838.461436 1043.852263 844.558054 C1056.893645 854.160777 1069.946257 863.753428 1082.792571 873.612742 C1086.041961 876.106638 1089.037932 875.552012 1091.621428 873.762095 C1101.510344 866.909861 1111.129485 859.669688 1120.901702 852.647349 C1134.892302 842.593760 1148.490325 831.899363 1163.087859 822.815318 C1174.293792 815.841807 1186.384856 809.804636 1198.809417 805.404551 C1212.830169 800.439280 1227.529509 797.036326 1242.188445 794.338511 C1253.894866 792.184031 1265.978850 792.050486 1277.903777 791.128489 C1283.921965 790.663157 1289.971160 790.015635 1295.984587 790.191905 C1309.216155 790.579722 1322.489836 790.901438 1335.640837 792.266001 C1347.325286 793.478404 1359.127654 794.725047 1370.261931 799.092478 C1386.098845 805.304636 1398.700652 814.858225 1404.095061 831.799387 C1407.995086 844.047801 1404.757537 854.889048 1397.524871 865.071543 C1386.712249 880.293955 1370.747527 889.235972 1355.925872 899.518870 C1330.852019 916.914256 1305.584319 934.031443 1280.335784 951.173777 C1255.243499 968.209849 1230.052581 985.100535 1204.944793 1002.113963 C1176.307463 1021.519236 1147.713713 1040.988841 1119.101653 1060.431345 C1104.535369 1070.329539 1089.932708 1080.174998 1075.412810 1090.140940 C1051.785247 1106.357859 1028.281096 1122.755442 1004.594939 1138.886179 C984.217009 1152.764231 963.644378 1166.355662 943.183806 1180.112498 C928.799590 1189.783762 915.100371 1200.546092 899.034087 1207.514231 C891.410125 1210.820872 883.535552 1212.916697 875.283721 1214.224680 C858.250579 1216.924387 842.645232 1213.006541 827.855498 1205.044627 C817.613921 1199.530955 809.540374 1191.405589 802.948943 1181.892405 C783.397857 1153.675120 764.080291 1125.294871 744.366118 1097.192576 C738.864653 1089.350291 733.092131 1081.808421 730.669707 1072.342234 C728.557036 1064.086131 729.704070 1054.806467 740.011443 1052.791331 C743.459502 1052.117259 747.818206 1053.302439 751.072234 1054.976145 C759.708220 1059.418040 764.525420 1067.738718 769.731292 1075.466135 C782.445342 1094.338694 795.115386 1113.243723 807.547698 1132.302195 C815.693755 1144.790110 823.922942 1157.228098 834.885100 1167.420969 C844.337188 1176.209910 855.247039 1182.731394 868.757781 1181.999094 C879.788543 1181.401316 889.331878 1176.211009 898.313506 1170.174387 C916.061980 1158.245432 933.673430 1146.112986 951.400359 1134.151682 C976.791228 1117.019236 1002.262297 1100.005442 1027.645964 1082.862498 C1044.201018 1071.682078 1060.651336 1060.346995 1077.167693 1049.109202 C1100.307952 1033.364695 1123.496062 1017.690379 1146.606047 1001.901682 C1162.989836 990.708445 1179.201873 979.262888 1195.628142 968.133250 C1217.598479 953.247324 1239.755828 938.637400 1261.730193 923.757395 C1277.117278 913.338023 1292.315642 902.640269 1307.632537 892.116526 C1314.521209 887.383616 1321.493254 882.772044 1328.677581 877.855418 z"/></svg>