<svg id="Layer_1" data-name="Layer 1" xmlns="http://www.w3.org/2000/svg" viewBox="0 0 1080 575.2"><defs><style>.cls-1{fill:#231f20;}</style></defs><title>small plane</title><path class="cls-1" d="M159.76,523.24a6.91,6.91,0,0,1-4.24-12.36c1.81-1.4,181.35-140.53,237.92-183.71,33.66-25.69,73.46-23.53,110.17-6.22,19.14-7.21,40.3-16.66,60.29-30.15,8-5.4,19.73-7.77,34.6-7.57a15.11,15.11,0,0,1-4.37-6.73c-3.76-11.39,4.58-27.85,20.27-40,8.46-6.57,35.6-23.88,72.67-11.21a284.4,284.4,0,0,0,37.35-43.52C738.2,161.63,752.7,133,743.56,111A21,21,0,0,0,729,98c-37.08-10.13-121.58,45-151,67.05l-59,39.37c-6.81,4.54-17.12,7.08-29.9,8-7.07,9.23-20.88,19.23-42.85,31.39-10,5.57-18.95,8.5-26.82,9.56a82.29,82.29,0,0,1-33.66,31.23,139.87,139.87,0,0,1-28.21,10.3,20.36,20.36,0,0,1,2.58,5.18c1.83,5.8.38,11.57-4.08,16.24-31.79,33.3-118,90.41-121.63,92.83a6.9,6.9,0,0,1-7.61-11.52c.88-.58,88.54-58.67,119.26-90.84,1.06-1.11,2.06-2.16-1.29-6a34.27,34.27,0,0,0-2.61-2.68c-85.37,13.88-196.35-26-213.81-48.25-6.63-8.44-2.35-14.77-.88-16.51,2.66-3.14,10.75-12.7,77.12.66,30.36,6.11,108,26,141,49.48a133.39,133.39,0,0,0,34-11.2,67.41,67.41,0,0,0,23.45-19.46c-14-3.09-23.17-12.56-28.49-20.19-6.6-9.46-11.45-22-14.7-36.19C283.93,179.64,208,155.33,193.24,150.51,149.61,136.3,47.39,101.19,40.36,82.11c-2.69-7.29.13-11.88,2-14,12.87-14,65.75-.18,194.81,35.28C261.09,110,286.66,117,313.6,124.25q21.73,5.83,41.17,10.91c1.52-35,9.94-67.19,23.29-78.73a16.81,16.81,0,0,1,18.61-2.85C416.31,62.29,434,108.66,437.44,158c36.45,11.55,55.28,21.85,57.16,37a19.67,19.67,0,0,1,.15,3.06c7.29-1,12.83-2.69,16.49-5.13L570,153.78c4.23-3.19,111.54-83.11,162.65-69.1,11.22,3.07,19.2,10.14,23.71,21,9.11,22,2,51-20.5,83.85a293.5,293.5,0,0,1-35.21,41.54c3.08,1.6,6.21,3.4,9.39,5.43,27.91,17.86,82.49,46.45,140.28,76.71,143.81,75.3,188.84,101.13,190.42,116a9.19,9.19,0,0,1-3.3,8.14c-8.8,7.33-33.83-1.68-137.14-43.47-115.61-46.77-290.34-117.45-328.63-91.61-17.11,11.54-35.25,20.34-52.1,27.25a224.79,224.79,0,0,1,50.37,42.21c3.45,3.86,14,15.58,6.66,24.5-16,19.52-118.46-25.39-129.72-32-2.25-1.32-9.09-5.34-8.33-12.47,1-9.08,11.8-12.66,35.52-20.5,3.19-1.06,6.54-2.16,10-3.33-26.91-9.55-56-9.73-82.21,10.24-56.54,43.15-236,182.25-237.84,183.65A6.85,6.85,0,0,1,159.76,523.24ZM1030,425.93ZM623.71,285.46c64.8,9.65,167.12,49.25,281.71,95.6,46.35,18.75,94,38,114.94,43.45-25-19.75-111.28-64.91-176.49-99.07C785.8,295,731,266.32,702.55,248.14a98.51,98.51,0,0,0-12.62-6.9C666.55,262.59,641.64,279.56,623.71,285.46Zm-168.9,67.42c24,13.61,94.47,37.75,109.8,34.73a35.21,35.21,0,0,0-5-6.68c-13.64-15.21-33.93-32.84-57-44.9-8.88,3.23-17.09,5.94-24.21,8.3C469.57,347.24,459.89,350.44,454.81,352.88ZM139.4,241.71c2.73,3.16,11.43,10,32.24,18.58,37.15,15.38,98.95,30.5,152.75,26.07C273.25,259.5,158.35,235.79,139.4,241.71Zm521.05-7.25a61.62,61.62,0,0,0-37.59,12.93c-12.2,9.46-17,20.67-15.62,24.79.35,1.09,1.81,1.66,4.34,1.72,11.2.3,37.21-14.75,63.59-37.73A65.45,65.45,0,0,0,660.45,234.46ZM374.52,199.63c2.77,9.66,6.47,18.27,11.24,25.11,6.81,9.76,15.15,14.87,25.18,15.35a117.55,117.55,0,0,0,10.42-32C406.32,205.87,390.51,203,374.52,199.63ZM435,210a141,141,0,0,1-7.68,27.33,80.11,80.11,0,0,0,12.1-5.55c13.92-7.71,23.3-14,29.56-19C458.56,212.47,447.13,211.49,435,210Zm1.94-13.8c17.13,2.13,31.84,3.08,43.73,2.86a6.09,6.09,0,0,0,.21-2.34c-1-7.77-17.23-15.56-42.88-23.94A212.06,212.06,0,0,1,437,196.19Zm-65.84-11.4c19,4,36.45,7.2,52.17,9.53a202.18,202.18,0,0,0,.88-24.42c0-.49,0-1,0-1.47-16.32-4.9-35.37-10-56-15.49A214.11,214.11,0,0,0,371.13,184.79ZM53.24,77.14c0,.06,0,.13.07.2,9,15.06,162,72.39,302.34,104.06l1.34.3a241.8,241.8,0,0,1-2.46-32.33l-1.68-.45q-20.14-5.29-42.83-11.34c-27-7.24-52.57-14.28-76.47-20.85C151.46,94.18,66.64,70.84,53.24,77.14Zm314.93,61.55c21,5.54,39.37,10.43,55.09,15-4.22-46.48-21.09-82.61-32.19-87.54-1.4-.62-2.39-.68-4,.69C376.61,75.93,369.27,106,368.17,138.69Z"/></svg>